<svg height="24" viewBox="0 0 24 24" width="24" xmlns="http://www.w3.org/2000/svg"><g fill="none" fill-rule="evenodd"><path d="m0 0h24v24h-24z" fill-rule="nonzero"/><path d="m8.17155 15.8285c3.84585 3.8458 7.40865 4.2669 8.45435 4.3054 1.2645.0465 2.5543-.9856 3.1117-2.0433-.8896-1.0441-2.0484-1.8539-3.3181-2.7319-.7483.7483-1.6711 2.1386-2.9009 1.6412-.6983-.2824-2.4245-1.0773-3.93283-2.5856-1.50838-1.5084-2.30324-3.2346-2.58564-3.9328-.49782-1.23088.8956-2.15537 1.64446-2.90423-.87755-1.29069-1.67401-2.47908-2.71592-3.32406-1.07142.56049-2.10961 1.8405-2.0625 3.12092.03848 1.04566.45958 4.60857 4.30538 8.45437zm8.38075 6.304c-1.4409-.053-5.5216-.6164-9.79496-4.8898-4.27339-4.2734-4.83679-8.35407-4.88981-9.79502-.0808-2.19546 1.601-4.32865 3.54461-5.16162.45606-.19546 1.00845-.15969 1.44513.15884 1.60763 1.17267 2.71678 2.95042 3.66933 4.34242.4058.59306.3388 1.39759-.1764 1.91281l-1.35643 1.35637c.31481.6953.95708 1.8944 2.00623 2.9435 1.0491 1.0492 2.2482 1.6914 2.9435 2.0063l1.3557-1.3558c.5157-.5156 1.3237-.5836 1.9181-.1718 1.42.9838 3.0877 2.0773 4.3037 3.6346.3415.4374.3923 1.0094.1886 1.4848-.8368 1.9526-2.9544 3.6155-5.1573 3.5344z" fill="#09244b"/></g></svg>